<svg width="28" height="18" viewBox="0 0 28 18" fill="none" xmlns="http://www.w3.org/2000/svg">
<path d="M18.2368 16.9802C16.7858 16.9802 15.3652 16.5875 14.1285 15.8444L13.6135 15.535L13.0985 15.8444C11.8618 16.5875 10.4411 16.9802 8.98987 16.9802C4.58424 16.9802 1 13.3958 1 8.98987C1 4.58424 4.58424 1 8.98987 1C10.441 1 11.8618 1.39273 13.0985 2.13574L13.6135 2.44514L14.1285 2.13572C15.3652 1.39273 16.7858 1 18.2368 1C22.6427 1 26.2271 4.58424 26.2271 8.98987C26.2271 13.3958 22.6427 16.9802 18.2368 16.9802Z" fill="#C2128D"/>
<path d="M18.2368 15.9802C22.0913 15.9802 25.2271 12.8443 25.2271 8.98987C25.2271 5.13564 22.0913 2 18.2368 2C16.9672 2 15.7247 2.34334 14.6435 2.99291L13.6135 3.61174L12.5835 2.99293C11.5023 2.34335 10.2596 2 8.98987 2C5.13564 2 2 5.13564 2 8.98987C2 12.8443 5.13564 15.9802 8.98987 15.9802C10.2596 15.9802 11.5023 15.6368 12.5835 14.9873L13.6135 14.3684L14.6435 14.9873C15.7247 15.6369 16.9672 15.9802 18.2368 15.9802ZM18.2368 17.9802C16.5463 17.9802 14.9643 17.5133 13.6135 16.7016C12.2626 17.5133 10.6806 17.9802 8.98987 17.9802C4.02519 17.9802 0 13.955 0 8.98987C0 4.02519 4.02519 0 8.98987 0C10.6806 0 12.2626 0.46693 13.6135 1.27854C14.9643 0.46693 16.5463 0 18.2368 0C23.202 0 27.2271 4.02519 27.2271 8.98987C27.2271 13.955 23.202 17.9802 18.2368 17.9802Z" fill="white"/>
</svg>
