<svg width="24" height="24" viewBox="0 0 24 24" fill="none" xmlns="http://www.w3.org/2000/svg">
    <path d="M23.5312 22.125H12.4688V22.4062C12.4688 23.285 11.7537 24 10.875 24H2.71875C1.21967 24 0 22.7803 0 21.2812V2.71875C0 1.21967 1.21967 0 2.71875 0H23.5312C23.7902 0 24 0.209839 24 0.46875V21.6562C24 21.9152 23.7902 22.125 23.5312 22.125ZM2.71875 23.0625H10.875C11.2368 23.0625 11.5312 22.7681 11.5312 22.4062V5.29559C11.3309 5.38641 11.1088 5.4375 10.875 5.4375H2.71875C2.03778 5.4375 1.41504 5.18518 0.9375 4.77008V21.2812C0.9375 22.2634 1.73657 23.0625 2.71875 23.0625ZM23.0625 0.9375H2.71875C1.73657 0.9375 0.9375 1.73657 0.9375 2.71875C0.9375 3.70093 1.73657 4.5 2.71875 4.5H10.875C11.2368 4.5 11.5312 4.20557 11.5312 3.84375C11.5312 3.48193 11.2368 3.1875 10.875 3.1875H4.59375C4.33484 3.1875 4.125 2.97766 4.125 2.71875C4.125 2.45984 4.33484 2.25 4.59375 2.25H10.875C11.7537 2.25 12.4688 2.96503 12.4688 3.84375V21.1875H23.0625V0.9375Z" fill="black"/>
    <path d="M2.73413 3.1875C2.6109 3.1875 2.49005 3.13733 2.40289 3.05017C2.31555 2.96301 2.26538 2.84198 2.26538 2.71875C2.26538 2.59552 2.31555 2.47449 2.40289 2.38733C2.49005 2.30017 2.6109 2.25 2.73413 2.25C2.85791 2.25 2.97839 2.30017 3.06555 2.38733C3.15326 2.47449 3.20288 2.59552 3.20288 2.71875C3.20288 2.84198 3.15326 2.96301 3.06555 3.05017C2.97839 3.13733 2.85791 3.1875 2.73413 3.1875Z" fill="black"/>
    <path d="M3.2124 18.8177C3.47131 18.8177 3.68115 19.0276 3.68115 19.2865V21.3012C3.68115 21.5601 3.47131 21.77 3.2124 21.77C2.95367 21.77 2.74365 21.5601 2.74365 21.3012V19.2865C2.74365 19.0276 2.95367 18.8177 3.2124 18.8177Z" fill="black"/>
    <path d="M5.22717 19.8252H7.2417C7.50061 19.8252 7.71045 20.035 7.71045 20.2939C7.71045 20.5529 7.50061 20.7627 7.2417 20.7627H5.22717C4.96826 20.7627 4.75842 20.5529 4.75842 20.2939C4.75842 20.035 4.96826 19.8252 5.22717 19.8252Z" fill="black"/>
    <path d="M9.2395 18.8177C9.49841 18.8177 9.70825 19.0276 9.70825 19.2865V21.3012C9.70825 21.5601 9.49841 21.77 9.2395 21.77C8.98059 21.77 8.77075 21.5601 8.77075 21.3012V19.2865C8.77075 19.0276 8.98059 18.8177 9.2395 18.8177Z" fill="black"/>
    <path d="M8.2406 16.8032H10.2551C10.514 16.8032 10.7239 17.0131 10.7239 17.272C10.7239 17.5309 10.514 17.7407 10.2551 17.7407H8.2406C7.98169 17.7407 7.77185 17.5309 7.77185 17.272C7.77185 17.0131 7.98169 16.8032 8.2406 16.8032Z" fill="black"/>
    <path d="M5.77405 18.2792V16.2645C5.77405 16.0056 5.98389 15.7958 6.2428 15.7958C6.50153 15.7958 6.71155 16.0056 6.71155 16.2645V18.2792C6.71155 18.5381 6.50153 18.748 6.2428 18.748C5.98389 18.748 5.77405 18.5381 5.77405 18.2792Z" fill="black"/>
    <path d="M2.21362 16.8032H4.22815C4.48706 16.8032 4.6969 17.0131 4.6969 17.272C4.6969 17.5309 4.48706 17.7407 4.22815 17.7407H2.21362C1.95471 17.7407 1.74487 17.5309 1.74487 17.272C1.74487 17.0131 1.95471 16.8032 2.21362 16.8032Z" fill="black"/>
    <path d="M2.74365 15.2573V13.2427C2.74365 12.9838 2.95367 12.774 3.2124 12.774C3.47131 12.774 3.68115 12.9838 3.68115 13.2427V15.2573C3.68115 15.5162 3.47131 15.726 3.2124 15.726C2.95367 15.726 2.74365 15.5162 2.74365 15.2573Z" fill="black"/>
    <path d="M5.22717 13.7812H7.2417C7.50061 13.7812 7.71045 13.9911 7.71045 14.25C7.71045 14.5089 7.50061 14.7188 7.2417 14.7188H5.22717C4.96826 14.7188 4.75842 14.5089 4.75842 14.25C4.75842 13.9911 4.96826 13.7812 5.22717 13.7812Z" fill="black"/>
    <path d="M8.77075 15.2573V13.2427C8.77075 12.9838 8.98059 12.774 9.2395 12.774C9.49841 12.774 9.70825 12.9838 9.70825 13.2427V15.2573C9.70825 15.5162 9.49841 15.726 9.2395 15.726C8.98059 15.726 8.77075 15.5162 8.77075 15.2573Z" fill="black"/>
    <path d="M8.2406 10.7593H10.2551C10.514 10.7593 10.7239 10.9691 10.7239 11.228C10.7239 11.4869 10.514 11.6968 10.2551 11.6968H8.2406C7.98169 11.6968 7.77185 11.4869 7.77185 11.228C7.77185 10.9691 7.98169 10.7593 8.2406 10.7593Z" fill="black"/>
    <path d="M5.77405 12.2353V10.2208C5.77405 9.96186 5.98389 9.75202 6.2428 9.75202C6.50153 9.75202 6.71155 9.96186 6.71155 10.2208V12.2353C6.71155 12.4942 6.50153 12.704 6.2428 12.704C5.98389 12.704 5.77405 12.4942 5.77405 12.2353Z" fill="black"/>
    <path d="M2.21362 10.7593H4.22815C4.48706 10.7593 4.6969 10.9691 4.6969 11.228C4.6969 11.4869 4.48706 11.6968 4.22815 11.6968H2.21362C1.95471 11.6968 1.74487 11.4869 1.74487 11.228C1.74487 10.9691 1.95471 10.7593 2.21362 10.7593Z" fill="black"/>
    <path d="M3.2124 9.68225C2.95367 9.68225 2.74365 9.47241 2.74365 9.2135V7.19879C2.74365 6.93988 2.95367 6.73004 3.2124 6.73004C3.47131 6.73004 3.68115 6.93988 3.68115 7.19879V9.2135C3.68115 9.47241 3.47131 9.68225 3.2124 9.68225Z" fill="black"/>
    <path d="M5.22717 7.7373H7.2417C7.50061 7.7373 7.71045 7.94714 7.71045 8.20605C7.71045 8.46497 7.50061 8.6748 7.2417 8.6748H5.22717C4.96826 8.6748 4.75842 8.46497 4.75842 8.20605C4.75842 7.94714 4.96826 7.7373 5.22717 7.7373Z" fill="black"/>
    <path d="M9.2395 9.68225C8.98059 9.68225 8.77075 9.47241 8.77075 9.2135V7.19879C8.77075 6.93988 8.98059 6.73004 9.2395 6.73004C9.49841 6.73004 9.70825 6.93988 9.70825 7.19879V9.2135C9.70825 9.47241 9.49841 9.68225 9.2395 9.68225Z" fill="black"/>
    <path d="M14.7437 17.1412C15.0026 17.1412 15.2124 17.3511 15.2124 17.61V19.6247C15.2124 19.8836 15.0026 20.0934 14.7437 20.0934C14.4849 20.0934 14.2749 19.8836 14.2749 19.6247V17.61C14.2749 17.3511 14.4849 17.1412 14.7437 17.1412Z" fill="black"/>
    <path d="M18.7729 19.086H16.7584C16.4995 19.086 16.2897 18.8762 16.2897 18.6172C16.2897 18.3583 16.4995 18.1485 16.7584 18.1485H18.7729C19.0319 18.1485 19.2417 18.3583 19.2417 18.6172C19.2417 18.8762 19.0319 19.086 18.7729 19.086Z" fill="black"/>
    <path d="M20.7708 17.1412C21.0297 17.1412 21.2395 17.3511 21.2395 17.61V19.6247C21.2395 19.8836 21.0297 20.0934 20.7708 20.0934C20.5118 20.0934 20.302 19.8836 20.302 19.6247V17.61C20.302 17.3511 20.5118 17.1412 20.7708 17.1412Z" fill="black"/>
    <path d="M21.7864 16.0642H19.7719C19.5129 16.0642 19.3031 15.8544 19.3031 15.5955C19.3031 15.3365 19.5129 15.1267 19.7719 15.1267H21.7864C22.0453 15.1267 22.2551 15.3365 22.2551 15.5955C22.2551 15.8544 22.0453 16.0642 21.7864 16.0642Z" fill="black"/>
    <path d="M18.2428 14.588V16.6027C18.2428 16.8616 18.0328 17.0715 17.774 17.0715C17.5151 17.0715 17.3053 16.8616 17.3053 16.6027V14.588C17.3053 14.3291 17.5151 14.1193 17.774 14.1193C18.0328 14.1193 18.2428 14.3291 18.2428 14.588Z" fill="black"/>
    <path d="M15.7594 16.0642H13.7449C13.486 16.0642 13.2761 15.8544 13.2761 15.5955C13.2761 15.3365 13.486 15.1267 13.7449 15.1267H15.7594C16.0183 15.1267 16.2281 15.3365 16.2281 15.5955C16.2281 15.8544 16.0183 16.0642 15.7594 16.0642Z" fill="black"/>
    <path d="M15.2124 11.5662V13.5808C15.2124 13.8397 15.0026 14.0495 14.7437 14.0495C14.4849 14.0495 14.2749 13.8397 14.2749 13.5808V11.5662C14.2749 11.3073 14.4849 11.0975 14.7437 11.0975C15.0026 11.0975 15.2124 11.3073 15.2124 11.5662Z" fill="black"/>
    <path d="M18.7729 13.0422H16.7584C16.4995 13.0422 16.2897 12.8324 16.2897 12.5735C16.2897 12.3146 16.4995 12.1047 16.7584 12.1047H18.7729C19.0319 12.1047 19.2417 12.3146 19.2417 12.5735C19.2417 12.8324 19.0319 13.0422 18.7729 13.0422Z" fill="black"/>
    <path d="M21.2395 11.5662V13.5808C21.2395 13.8397 21.0297 14.0495 20.7708 14.0495C20.5118 14.0495 20.302 13.8397 20.302 13.5808V11.5662C20.302 11.3073 20.5118 11.0975 20.7708 11.0975C21.0297 11.0975 21.2395 11.3073 21.2395 11.5662Z" fill="black"/>
    <path d="M21.7864 10.0203H19.7719C19.5129 10.0203 19.3031 9.81042 19.3031 9.55151C19.3031 9.2926 19.5129 9.08276 19.7719 9.08276H21.7864C22.0453 9.08276 22.2551 9.2926 22.2551 9.55151C22.2551 9.81042 22.0453 10.0203 21.7864 10.0203Z" fill="black"/>
    <path d="M18.2428 8.54425V10.559C18.2428 10.8177 18.0328 11.0277 17.774 11.0277C17.5151 11.0277 17.3053 10.8177 17.3053 10.559V8.54425C17.3053 8.28534 17.5151 8.0755 17.774 8.0755C18.0328 8.0755 18.2428 8.28534 18.2428 8.54425Z" fill="black"/>
    <path d="M15.7594 10.0203H13.7449C13.486 10.0203 13.2761 9.81042 13.2761 9.55151C13.2761 9.2926 13.486 9.08276 13.7449 9.08276H15.7594C16.0183 9.08276 16.2281 9.2926 16.2281 9.55151C16.2281 9.81042 16.0183 10.0203 15.7594 10.0203Z" fill="black"/>
    <path d="M15.2124 5.52228V7.53699C15.2124 7.7959 15.0026 8.00574 14.7437 8.00574C14.4849 8.00574 14.2749 7.7959 14.2749 7.53699V5.52228C14.2749 5.26337 14.4849 5.05353 14.7437 5.05353C15.0026 5.05353 15.2124 5.26337 15.2124 5.52228Z" fill="black"/>
    <path d="M18.7729 6.99829H16.7584C16.4995 6.99829 16.2897 6.78845 16.2897 6.52954C16.2897 6.27063 16.4995 6.06079 16.7584 6.06079H18.7729C19.0319 6.06079 19.2417 6.27063 19.2417 6.52954C19.2417 6.78845 19.0319 6.99829 18.7729 6.99829Z" fill="black"/>
    <path d="M21.2395 5.52228V7.53699C21.2395 7.7959 21.0297 8.00574 20.7708 8.00574C20.5118 8.00574 20.302 7.7959 20.302 7.53699V5.52228C20.302 5.26337 20.5118 5.05353 20.7708 5.05353C21.0297 5.05353 21.2395 5.26337 21.2395 5.52228Z" fill="black"/>
    <path d="M21.7864 3.9765H19.7719C19.5129 3.9765 19.3031 3.76666 19.3031 3.50775C19.3031 3.24884 19.5129 3.039 19.7719 3.039H21.7864C22.0453 3.039 22.2551 3.24884 22.2551 3.50775C22.2551 3.76666 22.0453 3.9765 21.7864 3.9765Z" fill="black"/>
    <path d="M17.774 4.98376C17.5151 4.98376 17.3053 4.77393 17.3053 4.51501V2.50031C17.3053 2.24139 17.5151 2.03156 17.774 2.03156C18.0328 2.03156 18.2428 2.24139 18.2428 2.50031V4.51501C18.2428 4.77393 18.0328 4.98376 17.774 4.98376Z" fill="black"/>
    <path d="M15.7594 3.9765H13.7449C13.486 3.9765 13.2761 3.76666 13.2761 3.50775C13.2761 3.24884 13.486 3.039 13.7449 3.039H15.7594C16.0183 3.039 16.2281 3.24884 16.2281 3.50775C16.2281 3.76666 16.0183 3.9765 15.7594 3.9765Z" fill="black"/>
    </svg>
    