<svg width="24" height="24" viewBox="0 0 24 24" fill="none" xmlns="http://www.w3.org/2000/svg">
    <path fill-rule="evenodd" clip-rule="evenodd" d="M23.5313 18.0157C23.2723 18.0157 23.0625 18.2256 23.0625 18.4845V20.2841H20.2646L20.2646 17.1275C20.2646 16.8686 20.0548 16.6588 19.7959 16.6588C19.5372 16.6588 19.3271 16.8686 19.3271 17.1275L19.3271 20.2841H16.5324L16.5324 17.1275C16.5324 16.8686 16.3226 16.6588 16.0637 16.6588C15.8047 16.6588 15.5949 16.8686 15.5949 17.1275V20.2841L12.8002 20.2841V17.1275C12.8002 16.8686 12.5901 16.6588 12.3314 16.6588C12.0725 16.6588 11.8627 16.8686 11.8627 17.1275V20.2841H9.06775V17.1275C9.06775 16.8686 8.85791 16.6588 8.599 16.6588C8.34009 16.6588 8.13025 16.8686 8.13025 17.1275V20.2559C7.37421 20.2072 6.64142 20.0958 5.94855 19.9257V17.1275C5.94855 16.8686 5.73853 16.6588 5.4798 16.6588C5.22089 16.6588 5.01105 16.8686 5.01105 17.1275V19.6516C4.35938 19.4282 3.75494 19.1484 3.21442 18.8163C3.18787 18.7998 3.16187 18.7831 3.13568 18.7667V15.9338C3.13568 15.6751 2.92584 15.4651 2.66693 15.4651C2.40802 15.4651 2.19818 15.6751 2.19818 15.9338V18.0529C1.37805 17.2921 0.9375 16.4136 0.9375 15.5041L0.9375 9.78168C0.946655 9.7934 0.95636 9.80493 0.965698 9.81665C0.977783 9.83185 0.989868 9.84686 1.00214 9.86206C1.02283 9.88751 1.04407 9.91278 1.06549 9.93805C1.07703 9.9516 1.08838 9.96533 1.1001 9.97888C1.12701 10.01 1.15448 10.041 1.18231 10.0717C1.1889 10.079 1.19513 10.0864 1.20172 10.0937C1.23633 10.1316 1.27185 10.1693 1.30792 10.2068C1.31799 10.2173 1.32843 10.2277 1.33868 10.2382C1.36505 10.2653 1.39178 10.2922 1.41888 10.3191C1.43243 10.3325 1.44635 10.3456 1.46008 10.359C1.4848 10.3828 1.5097 10.4066 1.53497 10.4304C1.54962 10.4442 1.56464 10.4581 1.57965 10.4718C1.6051 10.4952 1.6311 10.5187 1.6571 10.5419C1.67175 10.5549 1.6864 10.5679 1.70142 10.5809C1.73108 10.6071 1.76147 10.6329 1.79205 10.6588C1.80359 10.6683 1.81476 10.6782 1.82629 10.6877C1.86859 10.7228 1.91144 10.7578 1.9552 10.7924C1.96381 10.7994 1.97278 10.8062 1.98157 10.8129C2.01672 10.8406 2.05243 10.8682 2.0885 10.8955C2.10425 10.9074 2.12036 10.9193 2.13629 10.9312C2.16614 10.9534 2.19617 10.9753 2.22656 10.9973C2.24451 11.0101 2.26245 11.0229 2.2804 11.0356C2.31024 11.0568 2.34045 11.0779 2.37085 11.0988C2.38898 11.1112 2.40692 11.1235 2.42505 11.1357C2.45801 11.1579 2.49133 11.1799 2.52484 11.202C2.54077 11.2123 2.55652 11.2227 2.57245 11.2332C2.62225 11.2652 2.67242 11.2969 2.72333 11.3282C4.40845 12.3644 6.63922 12.9349 9.00476 12.9349L23.0625 12.9349V14.7345C23.0625 14.9934 23.2723 15.2032 23.5312 15.2032C23.7902 15.2032 24 14.9934 24 14.7345V12.4662C24 12.2073 23.7902 11.9974 23.5312 11.9974L13.7417 11.9974L13.7417 7.21765C13.7417 5.99725 12.9965 4.86694 11.6433 4.03491C10.3612 3.24664 8.66638 2.8125 6.87085 2.8125C5.07532 2.8125 3.38031 3.24664 2.09839 4.03491C0.745239 4.86676 0 5.99725 0 7.21765L0 15.5041C0 17.0751 0.967163 18.5349 2.72333 19.6148C4.29053 20.5783 6.32977 21.139 8.51038 21.2128C8.53912 21.2184 8.5686 21.2216 8.599 21.2216C8.61987 21.2216 8.6402 21.2197 8.66034 21.217C8.77478 21.2197 8.88959 21.2216 9.00476 21.2216L23.5313 21.2216C23.7902 21.2216 24 21.0115 24 20.7528V18.4845C24 18.2256 23.7902 18.0157 23.5313 18.0157ZM2.58929 4.83344C3.72583 4.1347 5.24615 3.75 6.87085 3.75C8.49536 3.75 10.0159 4.1347 11.1522 4.83344C12.2175 5.4884 12.8042 6.33508 12.8042 7.21765C12.8042 8.38605 11.0643 9.37317 9.00494 9.37317C8.87146 9.37317 8.73944 9.36877 8.60907 9.36072C8.60907 9.36072 8.60907 6.16315 8.60907 6.16278C8.60907 6.104 8.5979 6.04523 8.57629 5.99066C8.54901 5.92236 8.5058 5.86066 8.45068 5.81177C8.41058 5.77625 8.36481 5.75024 8.3161 5.72845C7.89001 5.53784 7.39105 5.43658 6.87085 5.43658C5.41132 5.43658 4.26819 6.21899 4.26819 7.21765C4.26819 8.08759 4.79132 8.88831 5.74146 9.47241C6.62036 10.0129 7.77942 10.3107 9.00494 10.3107C10.2305 10.3107 11.3893 10.0129 12.2684 9.47241C12.4658 9.35101 12.6445 9.22028 12.8042 9.08148L12.8042 11.9974H9.00494C6.81024 11.9974 4.75397 11.4761 3.21442 10.5297C1.83801 9.68317 1.04132 8.59662 0.947021 7.448C0.940796 7.37146 0.937683 7.29456 0.937683 7.21765C0.9375 6.33527 1.52417 5.4884 2.58929 4.83344ZM7.67157 9.23016C6.24683 8.91632 5.20551 8.12146 5.20551 7.21765C5.20551 6.81958 5.91779 6.37427 6.87085 6.37427C7.15466 6.37427 7.42621 6.41327 7.67157 6.48724V9.23016Z" fill="black"/>
    <path fill-rule="evenodd" clip-rule="evenodd" d="M23.5312 16.1407C23.2731 16.1407 23.0625 16.3513 23.0625 16.6095C23.0625 16.8677 23.2731 17.0782 23.5312 17.0782C23.7894 17.0782 24 16.8677 24 16.6095C24 16.3513 23.7894 16.1407 23.5312 16.1407Z" fill="black"/>
    </svg>
    